<svg width="72" height="72" viewBox="0 0 72 72" fill="none" xmlns="http://www.w3.org/2000/svg">
<path fill-rule="evenodd" clip-rule="evenodd" d="M44.6636 46.9782C40.4953 50.0602 34.4324 51.7023 29.2031 51.7023C21.8771 51.7023 15.3089 48.9992 10.307 44.5024C9.92807 44.1487 10.2565 43.6687 10.7365 43.9466C16.1173 47.0792 22.7613 48.9487 29.6326 48.9487C34.2556 48.9487 39.3585 47.9887 44.0573 45.9929C44.7646 45.715 45.3457 46.4729 44.6636 46.9782Z" fill="white"/>
<path fill-rule="evenodd" clip-rule="evenodd" d="M46.4064 44.9825C45.8759 44.3004 42.8697 44.6541 41.5308 44.8309C41.1266 44.8814 41.0509 44.5278 41.4298 44.2751C43.8297 42.5826 47.7453 43.0878 48.2 43.6436C48.6547 44.1994 48.0737 48.1403 45.8254 50.0096C45.4717 50.2875 45.1433 50.136 45.2949 49.757C45.8001 48.4939 46.9369 45.6898 46.4064 44.9825Z" fill="white"/>
<path fill-rule="evenodd" clip-rule="evenodd" d="M41.6066 32.4021V30.7601C41.6066 30.5075 41.7835 30.3559 42.0108 30.3559H49.3368C49.5642 30.3559 49.7663 30.5327 49.7663 30.7601V32.1495C49.7663 32.3769 49.5642 32.68 49.2105 33.1853L45.4212 38.5914C46.8359 38.5661 48.3263 38.7682 49.5894 39.4756C49.8673 39.6272 49.9431 39.8798 49.9684 40.1071V41.8502C49.9684 42.1029 49.7158 42.3807 49.4379 42.2292C47.1896 41.0418 44.1834 40.9155 41.7077 42.2544C41.4551 42.3807 41.1772 42.1281 41.1772 41.8755V40.2082C41.1772 39.9556 41.1772 39.5008 41.4551 39.0966L45.8507 32.8063H42.0361C41.8087 32.8063 41.6066 32.6295 41.6066 32.4021ZM14.9046 42.5828H12.6816C12.4795 42.5576 12.3026 42.406 12.2774 42.2039V30.7853C12.2774 30.558 12.4795 30.3811 12.7068 30.3811H14.7783C15.0057 30.3811 15.1572 30.558 15.1825 30.7601V32.2506H15.233C15.7635 30.8106 16.7993 30.1285 18.1634 30.1285C19.5528 30.1285 20.437 30.8106 21.0433 32.2506C21.5738 30.8106 22.8117 30.1285 24.1253 30.1285C25.06 30.1285 26.0705 30.5075 26.702 31.3916C27.4094 32.3516 27.2578 33.741 27.2578 34.9789V42.2039C27.2578 42.4313 27.0557 42.6081 26.8283 42.6081H24.6305C24.4032 42.5828 24.2263 42.406 24.2263 42.2039V36.1409C24.2263 35.661 24.2769 34.4484 24.1758 33.9937C23.999 33.2358 23.519 33.0084 22.8622 33.0084C22.3317 33.0084 21.7506 33.3621 21.5233 33.9431C21.2959 34.5242 21.3212 35.4841 21.3212 36.1409V42.2039C21.3212 42.4313 21.1191 42.6081 20.8917 42.6081H18.6687C18.4413 42.5828 18.2645 42.406 18.2645 42.2039V36.1409C18.2645 34.8778 18.4666 32.9832 16.9003 32.9832C15.3088 32.9832 15.3593 34.802 15.3593 36.1409V42.2039C15.3341 42.406 15.1572 42.5828 14.9046 42.5828ZM56.0818 30.1285C59.3911 30.1285 61.1847 32.9579 61.1847 36.5704C61.1847 40.0566 59.2143 42.8355 56.0818 42.8355C52.8483 42.8355 51.0799 40.0061 51.0799 36.4694C51.0547 32.9074 52.8483 30.1285 56.0818 30.1285ZM56.0818 32.4779C54.4398 32.4779 54.3387 34.7263 54.3387 36.1157C54.3387 37.5051 54.3135 40.4861 56.0565 40.4861C57.7744 40.4861 57.8754 38.0862 57.8754 36.6209C57.8754 35.661 57.8249 34.4989 57.547 33.5895C57.2944 32.7811 56.7891 32.4779 56.0818 32.4779ZM65.454 42.5828H63.231C63.0036 42.5576 62.8268 42.3807 62.8268 42.1786V30.7348C62.852 30.5327 63.0289 30.3559 63.2562 30.3559H65.3277C65.5298 30.3559 65.6814 30.5075 65.7319 30.6843V32.4274H65.7824C66.414 30.8611 67.2729 30.1285 68.8139 30.1285C69.7991 30.1285 70.7843 30.4822 71.4159 31.4674C71.9969 32.3769 71.9969 33.9179 71.9969 35.0294V42.2292C71.9716 42.4313 71.7948 42.5828 71.5675 42.5828H69.3444C69.1423 42.5576 68.9655 42.406 68.9402 42.2292V36.0146C68.9402 34.7515 69.0918 32.9326 67.5508 32.9326C67.0203 32.9326 66.515 33.2863 66.2624 33.8421C65.9593 34.5494 65.9087 35.2315 65.9087 36.0146V42.1786C65.8835 42.406 65.6814 42.5828 65.454 42.5828ZM35.7711 37.1262C35.7711 37.9851 35.7964 38.7177 35.3669 39.5008C35.0132 40.1324 34.4575 40.5113 33.8259 40.5113C32.967 40.5113 32.4618 39.8545 32.4618 38.8945C32.4618 36.9999 34.1543 36.6462 35.7711 36.6462V37.1262ZM38.0194 42.5576C37.8678 42.6839 37.6657 42.7092 37.4889 42.6081C36.7563 42.0018 36.6047 41.6987 36.2005 41.1176C34.988 42.3555 34.1038 42.7344 32.5375 42.7344C30.6682 42.7344 29.203 41.5724 29.203 39.2735C29.203 37.4546 30.1882 36.242 31.5776 35.6357C32.7902 35.1052 34.4827 35.0042 35.7711 34.8526V34.5747C35.7711 34.0442 35.8216 33.4126 35.4932 32.9579C35.2153 32.5537 34.7101 32.3769 34.2554 32.3769C33.3965 32.3769 32.6386 32.8063 32.4618 33.7158C32.4112 33.9179 32.2849 34.12 32.0828 34.12L29.9356 33.8926C29.7587 33.8421 29.5566 33.7158 29.6072 33.4379C30.1124 30.8106 32.4618 30.0275 34.5838 30.0275C35.67 30.0275 37.0847 30.3054 37.9436 31.139C39.0299 32.1495 38.9289 33.5137 38.9289 34.9789V38.4398C38.9289 39.4756 39.3583 39.9303 39.7625 40.5113C39.9141 40.7134 39.9393 40.9661 39.7625 41.0924C39.2825 41.4713 38.4741 42.1786 38.0194 42.5576ZM6.5934 37.1262C6.5934 37.9851 6.61866 38.7177 6.18921 39.5008C5.83554 40.1324 5.27977 40.5113 4.64822 40.5113C3.78931 40.5113 3.28407 39.8545 3.28407 38.8945C3.28407 36.9999 4.97663 36.6462 6.5934 36.6462V37.1262ZM8.81646 42.5576C8.66489 42.6839 8.4628 42.7092 8.28596 42.6081C7.55336 42.0018 7.40179 41.6987 6.99759 41.1176C5.78501 42.3555 4.90084 42.7344 3.33459 42.7344C1.4652 42.7344 0 41.5724 0 39.2735C0 37.4546 0.985219 36.242 2.37463 35.6357C3.58721 35.1052 5.27977 35.0042 6.56814 34.8526V34.5747C6.56814 34.0442 6.61866 33.4126 6.29025 32.9579C6.01237 32.5537 5.50713 32.3769 5.05241 32.3769C4.1935 32.3769 3.43564 32.8063 3.25881 33.7158C3.20828 33.9179 3.08197 34.12 2.87987 34.12L0.732599 33.8926C0.555764 33.8421 0.353671 33.7158 0.404195 33.4379C0.909436 30.8106 3.25881 30.0275 5.38082 30.0275C6.46709 30.0275 7.88177 30.3054 8.74068 31.139C9.82695 32.1495 9.7259 33.5137 9.7259 34.9789V38.4398C9.7259 39.4756 10.1554 39.9303 10.5595 40.5113C10.7111 40.7134 10.7364 40.9661 10.5595 41.0924C10.0796 41.4713 9.27118 42.1786 8.81646 42.5576Z" fill="white"/>
</svg>
