<svg width="72" height="72" viewBox="0 0 72 72" fill="none" xmlns="http://www.w3.org/2000/svg">
<g clip-path="url(#clip0_261_86)">
<path d="M8.8671 24.263H9.50737C11.7302 24.3112 13.9168 25.2043 15.4872 26.7854C14.9074 27.3768 14.3154 27.944 13.7476 28.5354C12.8658 27.7388 11.8027 27.1233 10.6429 26.9061C8.9275 26.544 7.07918 26.8699 5.6416 27.8474C4.07113 28.8733 3.00804 30.6112 2.77851 32.4699C2.52482 34.3043 3.04428 36.2354 4.24025 37.6595C5.38791 39.0474 7.13958 39.9164 8.95166 39.9767C10.6429 40.0733 12.4067 39.5543 13.6389 38.3716C14.6054 37.5388 15.0523 36.2716 15.1973 35.0405C13.1919 35.0405 11.1866 35.0526 9.1812 35.0405V32.5543H17.6255C18.0604 35.2216 17.4322 38.2267 15.4027 40.1336C14.0497 41.4854 12.1772 42.2819 10.2684 42.4388C8.42012 42.6198 6.5114 42.2698 4.86844 41.3767C2.89932 40.3267 1.32884 38.5526 0.55569 36.4647C-0.169142 34.5457 -0.181223 32.3733 0.495288 30.4423C1.1114 28.6802 2.29529 27.1233 3.81744 26.0371C5.27918 24.963 7.05502 24.3716 8.8671 24.263Z" fill="white"/>
<path d="M57.3101 24.8905H59.8953V42.125C59.0376 42.125 58.1678 42.1371 57.3101 42.1129C57.3221 36.3802 57.3101 30.6354 57.3101 24.8905Z" fill="white"/>
<path d="M23.3758 30.8647C24.9705 30.5629 26.698 30.9009 28.0148 31.8543C29.2107 32.6992 30.0443 34.0267 30.298 35.475C30.6242 37.1526 30.2134 38.9871 29.1262 40.3147C27.9544 41.7991 26.0335 42.5957 24.1611 42.475C22.4456 42.3784 20.7785 41.5216 19.7637 40.1216C18.6161 38.5767 18.3382 36.4526 18.9664 34.6423C19.5946 32.6992 21.3705 31.2147 23.3758 30.8647ZM23.7382 33.1578C23.0859 33.3267 22.4819 33.7009 22.047 34.2319C20.8752 35.6319 20.9476 37.9129 22.2403 39.2164C22.9772 39.9647 24.0886 40.3147 25.1154 40.1095C26.0698 39.9405 26.9033 39.3009 27.3624 38.456C28.1597 37.0198 27.9302 35.0405 26.7101 33.9181C25.9248 33.194 24.7772 32.8923 23.7382 33.1578Z" fill="white"/>
<path d="M36.1812 30.8647C38.0053 30.5147 39.9986 31.0216 41.3637 32.3009C43.5865 34.2923 43.8282 38.0216 41.9315 40.3147C40.7839 41.763 38.9235 42.5595 37.0872 42.475C35.3355 42.4267 33.608 41.5578 32.5691 40.1216C31.3973 38.5405 31.1436 36.3681 31.808 34.5216C32.4724 32.6388 34.212 31.2026 36.1812 30.8647ZM36.5436 33.1578C35.8912 33.3268 35.2872 33.7009 34.8523 34.2199C33.6926 35.5957 33.7409 37.8405 34.9852 39.1561C35.7221 39.9405 36.8698 40.3267 37.9328 40.1095C38.8751 39.9285 39.7208 39.3009 40.1798 38.4561C40.9651 37.0078 40.7355 35.0285 39.5033 33.9061C38.7181 33.1819 37.5704 32.8923 36.5436 33.1578Z" fill="white"/>
<path d="M47.0416 31.5647C48.4309 30.6957 50.2792 30.4543 51.7772 31.2026C52.2483 31.4078 52.6349 31.7578 53.0094 32.1078C53.0215 31.7819 53.0094 31.444 53.0215 31.1061C53.8309 31.1181 54.6403 31.1061 55.4617 31.1181V41.763C55.4497 43.3681 55.0389 45.0698 53.8792 46.2405C52.6107 47.5319 50.6658 47.9302 48.9141 47.6647C47.0416 47.3871 45.4107 46.0233 44.6859 44.2974C45.4107 43.9474 46.1718 43.6698 46.9208 43.344C47.3436 44.3336 48.2013 45.1785 49.2765 45.3716C50.3517 45.5647 51.596 45.2992 52.2966 44.4061C53.0456 43.4888 53.0456 42.2336 53.0094 41.1112C52.4537 41.6543 51.8134 42.1371 51.0403 42.3181C49.3611 42.7888 47.5128 42.2095 46.2201 41.075C44.9154 39.9405 44.1423 38.1905 44.2148 36.4526C44.251 34.4854 45.3624 32.5906 47.0416 31.5647ZM49.5423 33.1095C48.8054 33.2302 48.1168 33.6405 47.6456 34.2078C46.5101 35.5595 46.5101 37.7199 47.6577 39.0474C48.3101 39.8319 49.3611 40.2664 50.3758 40.1578C51.3302 40.0612 52.2121 39.4578 52.6832 38.625C53.4805 37.213 53.3477 35.294 52.2725 34.063C51.6081 33.3026 50.545 32.9285 49.5423 33.1095Z" fill="white"/>
<path d="M63 32.1802C64.4497 30.8285 66.6846 30.3699 68.545 31.0819C70.3087 31.7457 71.4322 33.4233 72 35.1492C69.3785 36.2354 66.7691 37.3095 64.1477 38.3957C64.5101 39.0836 65.0658 39.7112 65.8148 39.9647C66.8658 40.3388 68.1222 40.206 69.004 39.506C69.3544 39.2405 69.6322 38.8905 69.898 38.5526C70.5624 38.9991 71.2269 39.4336 71.8913 39.8802C70.949 41.2922 69.3665 42.2819 67.6631 42.4388C65.7785 42.6681 63.7732 41.944 62.553 40.4716C60.5476 38.1543 60.7409 34.2681 63 32.1802ZM64.2926 34.413C63.8819 35.0043 63.7128 35.7285 63.7248 36.4405C65.4765 35.7164 67.2282 34.9923 68.9799 34.2561C68.6899 33.5802 67.9893 33.1698 67.2765 33.0612C66.1289 32.8561 64.9329 33.4716 64.2926 34.413Z" fill="white"/>
</g>
<defs>
<clipPath id="clip0_261_86">
<rect width="72" height="72" fill="white"/>
</clipPath>
</defs>
</svg>
