<svg width="72" height="72" viewBox="0 0 72 72" fill="none" xmlns="http://www.w3.org/2000/svg">
<path d="M7.33729 34.2811C7.33729 35.9206 6.54292 37.031 4.53116 37.031H3.89548V31.8096C4.12147 31.7969 4.33252 31.7969 4.53116 31.7969C6.43604 31.7967 7.33729 32.6954 7.33729 34.2811ZM5.27228 39.3044C8.87188 39.3044 11.1478 37.4534 11.1478 34.2289C11.1476 30.6858 8.71283 29.4171 4.74293 29.4171C3.20762 29.4171 1.35492 29.5226 0.0319214 29.6811V42.3189H3.89566V39.3044H5.27228ZM57.0403 34.2811C57.0403 35.9206 56.247 37.031 54.2347 37.031H53.6012V31.8096C53.8252 31.7969 54.0366 31.7969 54.2347 31.7969C56.1398 31.7967 57.0403 32.6954 57.0403 34.2811ZM54.9776 39.3044C58.5744 39.3044 60.8515 37.4534 60.8515 34.2289C60.8515 30.6858 58.4171 29.4171 54.4469 29.4171C52.9119 29.4171 51.0581 29.5226 49.735 29.6811V42.3189H53.6007V39.3044H54.9776ZM65.8794 32.9064C65.8794 32.2193 66.5683 31.9016 67.6788 31.9016C68.8968 31.9016 70.221 32.1661 71.1201 32.5377L70.8029 29.7873C69.7966 29.5757 68.8968 29.4171 67.2564 29.4171C64.133 29.4171 62.0164 30.647 62.0164 33.2246C62.0164 37.665 68.0516 36.7668 68.0516 38.8289C68.0516 39.6212 67.4685 40.044 66.0386 40.044C64.7701 40.044 62.8102 39.6212 61.6459 39.0399L62.0705 41.9489C63.2339 42.3718 64.822 42.5827 66.0928 42.5827C69.3207 42.5827 71.9679 41.5249 71.9679 38.3519C71.9679 34.1235 65.8794 34.9158 65.8794 32.9064ZM46.8248 29.6811H42.9611V42.3189H46.8248V29.6811ZM31.1563 29.6811H27.2922V42.3189H31.1563V29.6811ZM37.8787 39.78V29.6811H34.0146V42.3189H41.0024L41.5841 39.78H37.8787ZM24.4341 29.6811H20.57V34.7043H16.547V29.6811H12.6822V42.3189H16.5468V37.348H20.5698V42.3189H24.4339L24.4341 29.6811Z" fill="white"/>
</svg>
