<svg width="72" height="72" viewBox="0 0 72 72" fill="none" xmlns="http://www.w3.org/2000/svg">
<g clip-path="url(#clip0_261_103)">
<path fill-rule="evenodd" clip-rule="evenodd" d="M62.965 38.6923C69.0782 35.7013 72.4498 32.2965 71.9516 29.4768C70.9032 23.5504 52.9412 22.5959 34.4043 25.8868C25.9213 27.3932 17.8081 29.6541 12.3157 31.8963C12.6073 31.8778 12.8114 31.8914 12.8114 31.8914C15.1854 31.9569 15.0404 33.433 15.0404 33.433L15.0441 34.3346H13.1514V33.7226C13.1514 33.2883 12.6225 33.2593 12.6225 33.2593C12.2177 33.2593 12.1231 33.5341 12.1231 33.5341C11.899 33.9536 12.2825 34.3158 12.2825 34.3158C12.4779 34.5333 13.4619 34.9889 13.4619 34.9889C13.7806 35.1122 14.2944 35.4305 14.2944 35.4305C15.2571 36.0094 15.1698 37.1093 15.1698 37.1093V37.8336C15.0543 39.6288 12.5791 39.5776 12.5791 39.5776C9.98749 39.5776 10.044 37.8775 10.044 37.8775V36.9889H12.0604V37.601C12.0604 38.1221 12.5639 38.1454 12.5639 38.1454C13.1141 38.1667 13.1608 37.6345 13.1608 37.6345C13.2358 37.1171 12.6655 36.7914 12.6655 36.7914C12.1616 36.53 11.6597 36.2647 11.16 35.9954C10.6966 35.6915 10.5086 35.4162 10.5086 35.4162C10.1755 34.9967 10.1976 34.3449 10.1976 34.3449V33.7804C10.1976 32.9987 10.4078 32.7746 10.4078 32.7746C10.4166 32.7577 10.4257 32.7411 10.4353 32.7246C3.6642 35.8537 -0.480861 39.4805 0.0443387 42.4625C1.1099 48.5117 18.0494 49.3053 37.973 46.2368C47.1468 44.8243 55.1305 42.2237 61.1723 39.5305C61.1293 39.5326 61.0834 39.5326 61.0396 39.5326C61.0396 39.5326 58.5975 39.73 58.5398 37.7615V33.9541C58.5398 33.9541 58.2358 31.8553 60.9716 31.8553C60.9716 31.8553 62.7528 31.7975 63.2231 32.8541C63.2231 32.8541 63.455 33.1368 63.3936 34.3051H61.4964V33.7066C61.4964 33.7066 61.4931 33.2232 61.0011 33.2232C61.0011 33.2232 60.4865 33.2449 60.4865 33.6501V37.5874C60.4865 37.5874 60.4648 38.1159 61.0441 38.1159C61.0441 38.1159 61.5193 38.1053 61.5193 37.5493V36.4109H61.0015V35.3506H63.4386V37.5874C63.4386 37.5874 63.4321 38.0577 63.2371 38.3326C63.2379 38.333 63.0404 38.6358 62.965 38.6923ZM56.0182 39.3306H53.7835L51.7904 34.9336H51.7064L51.8191 39.3302H49.9436V32.1404H52.2472L54.1722 36.5018H54.2546L54.1194 32.1396H56.0182V39.3306ZM44.2668 37.5448C44.2668 38.154 44.8452 38.1233 44.8452 38.1233C45.3958 38.1233 45.3676 37.5297 45.3676 37.5297V32.1093H47.3774V37.5952C47.3774 39.5719 44.8747 39.542 44.8747 39.542C41.9935 39.542 42.2045 37.501 42.2045 37.501V32.1089H44.2602L44.2668 37.5448ZM37.9505 34.3346V33.7226C37.9505 33.2879 37.4224 33.2593 37.4224 33.2593C37.0168 33.2593 36.9222 33.5341 36.9222 33.5341C36.6981 33.9536 37.0824 34.3158 37.0824 34.3158C37.2778 34.5325 38.2618 34.9889 38.2618 34.9889C38.5801 35.1118 39.0939 35.4305 39.0939 35.4305C40.0566 36.0094 39.9701 37.1093 39.9701 37.1093V37.8336C39.8542 39.6288 37.3794 39.578 37.3794 39.578C34.7874 39.578 34.8439 37.8775 34.8439 37.8775V36.9889H36.8607V37.601C36.8607 38.1221 37.3642 38.1454 37.3642 38.1454C37.9148 38.1667 37.9603 37.6345 37.9603 37.6345C38.0365 37.1171 37.4658 36.7914 37.4658 36.7914C36.962 36.5299 36.4601 36.2646 35.9603 35.9954C35.4965 35.6915 35.3089 35.4162 35.3089 35.4162C34.9762 34.9963 34.9971 34.3445 34.9971 34.3445V33.7799C34.9971 32.9983 35.2073 32.7742 35.2073 32.7742C35.7432 31.768 37.6104 31.8909 37.6104 31.8909C39.9845 31.9565 39.8395 33.433 39.8395 33.433L39.8436 34.3346H37.9505ZM28.0188 32.1384L28.6247 36.0737H28.7726L29.4063 32.1388H32.5367L32.739 39.3294H30.857L30.8123 33.9131H30.6825L29.7021 39.3281H27.7337L26.741 33.9114H26.594L26.5714 39.3298H24.7L24.8582 32.1384H28.0188ZM20.6754 39.3216L19.938 33.7472H19.7729L19.0351 39.3216H17.0207L18.2653 32.1322H21.4456L22.691 39.3216H20.6754Z" fill="white"/>
</g>
<defs>
<clipPath id="clip0_261_103">
<rect width="72" height="72" fill="white"/>
</clipPath>
</defs>
</svg>
