<svg width="72" height="72" viewBox="0 0 72 72" fill="none" xmlns="http://www.w3.org/2000/svg">
<path fill-rule="evenodd" clip-rule="evenodd" d="M6.44413 41.2451H3.66657V33.2833H0.45459V30.8935H9.82719V33.2833H6.44413V41.2451ZM11.1413 33.6251C11.5604 31.1886 13.7328 30.8315 15.8126 30.8315C19.3821 30.8315 20.639 31.716 20.639 35.4561C20.639 39.2893 20.546 41.3224 15.8903 41.3224C14.0436 41.3224 11.8398 41.1831 11.219 39.057C11.0173 38.3585 11.0016 37.6293 11.0016 36.8998V36.139C11.0016 35.3164 11.0016 34.4476 11.1413 33.6251ZM13.8415 36.7131C13.8415 38.1721 13.8725 38.9479 15.5952 38.9479C17.4886 38.9479 17.7834 38.4821 17.7834 36.7131C17.7834 36.2167 17.7991 35.7045 17.7991 35.2078C17.7991 33.8264 17.5817 33.206 16.092 33.206C13.9196 33.206 13.8882 33.4234 13.8419 36.0923V36.7131H13.8415ZM28.7539 34.1215C28.7539 33.0659 28.3811 32.9266 27.3883 32.9266H27.1089C26.3794 32.9266 25.6036 32.9576 25.6036 33.8731C25.6036 34.5096 25.79 34.8043 26.4571 34.851C28.8622 35.0527 31.7026 34.5716 31.7026 37.9084C31.7026 38.7933 31.7026 39.9105 30.9731 40.5313C30.1192 41.2451 28.9399 41.3071 27.8537 41.3071H27.1709C24.3153 41.3071 22.8253 41.1831 22.8253 37.8927H25.4635C25.4635 38.6685 25.6499 39.1343 26.5187 39.1343H27.7136C28.4121 39.1343 28.9706 39.0409 28.9706 38.1097C28.9706 37.1942 28.4275 37.1942 27.6513 37.1479C24.6563 36.9462 22.8406 37.2252 22.8406 33.7801C22.8406 31.9797 23.5544 31.0332 25.4011 30.8935C26.0062 30.8468 26.6114 30.8158 27.2168 30.8158C29.6224 30.8158 31.4071 30.8625 31.4071 33.7958C31.4071 33.9045 31.3914 34.0132 31.3914 34.1219H28.7539V34.1215ZM43.0261 41.2451H40.2478V37.1789H36.6473V41.2451H33.8694V30.8935H36.6473V34.8043H40.2478V30.8935H43.0261V41.2451ZM48.4501 41.2451H45.6726V30.8935H48.4501V41.2451ZM51.1145 30.8935H56.7481C58.6258 30.8935 59.8364 31.4056 59.8364 33.5317C59.8364 34.7266 59.7277 35.6889 58.2228 35.9373V36.0299C59.6198 36.1543 60.0071 36.8991 60.0071 38.2647C60.0071 40.5926 59.2317 41.2447 56.7948 41.2447H51.1145V30.8935ZM55.6619 35.037C56.4227 35.006 57.0895 35.0994 57.0895 34.1525C57.0895 33.4077 56.8881 33.1746 56.1433 33.1746H53.8928V35.037H55.6619ZM55.7399 38.9636C56.6088 38.9636 57.2449 38.9479 57.2449 37.9394C57.2449 36.9772 56.7948 36.9462 55.9259 36.9462H53.8928V38.9636H55.7399ZM68.571 41.2451H71.3957L68.2446 30.8935H64.0394L60.935 41.2451H63.822L64.4136 39.1657H67.9708L68.571 41.2451ZM64.984 37.1636L66.1812 32.9576L67.3944 37.1636H64.984Z" fill="white"/>
</svg>
